<svg xmlns="http://www.w3.org/2000/svg" width="1200" height="600" style="background-color: rgb(245, 241, 237)" viewBox="0 0 1200 600" data-simulation-experiment-id="simulation_experiment_ac_sweep" data-simulation-experiment-name="Frequency Response"><style>
:root { color-scheme: light; }
svg { font-family: 'Inter', 'Helvetica Neue', Arial, sans-serif; }
.background { fill: rgb(245, 241, 237); }
.plot-background { fill: #ffffff; }
.grid-line { stroke: rgba(0, 0, 0, 0.08); stroke-width: 1; }
.axis { stroke: rgba(0, 0, 0, 0.6); stroke-width: 1.5; }
.axis-tick { stroke: rgba(0, 0, 0, 0.6); stroke-width: 1; }
.axis-label { fill: rgba(0, 0, 0, 0.75); font-size: 12px; }
.axis-title { fill: rgba(0, 0, 0, 0.9); font-size: 14px; font-weight: 600; }
.legend-label { fill: rgba(0, 0, 0, 0.75); font-size: 11px; }
.legend-line { stroke-width: 3; }
.scope-channel-card { fill: #ffffff; stroke: rgba(0, 0, 0, 0.22); stroke-width: 1; }
.scope-channel-header-text { fill: #ffffff; font-size: 14px; font-weight: 700; }
.scope-channel-detail { fill: rgba(0, 0, 0, 0.42); font-size: 14px; }
.simulation-line { fill: none; stroke-width: 2.5; }
.simulation-point { stroke-width: 0; }
.chart-title { fill: rgba(0, 0, 0, 0.85); font-size: 18px; font-weight: 600; }
</style><rect class="background" x="0" y="0" width="1200" height="600"/><defs><clipPath id="simulation-graph-simulation_experiment_ac_sweep"><rect x="100" y="64" width="1000" height="456"/></clipPath></defs><rect class="plot-background" x="100" y="64" width="1000" height="456"/><g class="grid"><line class="grid-line grid-line-x" x1="100" y1="64" x2="100" y2="520"/><line class="grid-line grid-line-x" x1="300" y1="64" x2="300" y2="520"/><line class="grid-line grid-line-x" x1="500" y1="64" x2="500" y2="520"/><line class="grid-line grid-line-x" x1="700" y1="64" x2="700" y2="520"/><line class="grid-line grid-line-x" x1="900" y1="64" x2="900" y2="520"/><line class="grid-line grid-line-x" x1="1100" y1="64" x2="1100" y2="520"/><line class="grid-line grid-line-y" x1="100" y1="520" x2="1100" y2="520"/><line class="grid-line grid-line-y" x1="100" y1="444" x2="1100" y2="444"/><line class="grid-line grid-line-y" x1="100" y1="368" x2="1100" y2="368"/><line class="grid-line grid-line-y" x1="100" y1="292" x2="1100" y2="292"/><line class="grid-line grid-line-y" x1="100" y1="216" x2="1100" y2="216"/><line class="grid-line grid-line-y" x1="100" y1="140" x2="1100" y2="140"/><line class="grid-line grid-line-y" x1="100" y1="64" x2="1100" y2="64"/></g><g class="data-series"><path class="simulation-line" d="M 100 139.981 L 300 143.320508 L 500 169.657311 L 700 251.299423 L 900 420.254524 L 1100 500.905236" stroke="#315cff" clip-path="url(#simulation-graph-simulation_experiment_ac_sweep)" data-simulation-transient-voltage-graph-id="ac_sweep_vout" stroke-dasharray="4 8" stroke-dashoffset="0"/><path class="simulation-line" d="M 100 291.968336 L 300 295.285336 L 500 317.206706 L 700 358.779654 L 900 459.916724 L 1100 508.543142" stroke="#dc2626" clip-path="url(#simulation-graph-simulation_experiment_ac_sweep)" data-simulation-transient-current-graph-id="ac_sweep_input_current" stroke-dasharray="4 8" stroke-dashoffset="4"/><path class="simulation-line" d="M 100 139.981 L 300 143.320508 L 500 169.657311 L 700 251.299423 L 900 420.254524 L 1100 500.905236" stroke="#315cff" clip-path="url(#simulation-graph-simulation_experiment_ac_sweep)" data-simulation-transient-voltage-graph-id="ac_sweep_vout" stroke-dasharray="4 8" stroke-dashoffset="4"/><path class="simulation-line" d="M 100 291.968336 L 300 295.285336 L 500 317.206706 L 700 358.779654 L 900 459.916724 L 1100 508.543142" stroke="#dc2626" clip-path="url(#simulation-graph-simulation_experiment_ac_sweep)" data-simulation-transient-current-graph-id="ac_sweep_input_current" stroke-dasharray="4 8" stroke-dashoffset="8"/><path class="simulation-line" d="M 100 139.981 L 300 143.320508 L 500 169.657311 L 700 251.299423 L 900 420.254524 L 1100 500.905236" stroke="#315cff" clip-path="url(#simulation-graph-simulation_experiment_ac_sweep)" data-simulation-transient-voltage-graph-id="ac_sweep_vout" stroke-dasharray="4 8" stroke-dashoffset="8"/><path class="simulation-line" d="M 100 291.968336 L 300 295.285336 L 500 317.206706 L 700 358.779654 L 900 459.916724 L 1100 508.543142" stroke="#dc2626" clip-path="url(#simulation-graph-simulation_experiment_ac_sweep)" data-simulation-transient-current-graph-id="ac_sweep_input_current" stroke-dasharray="4 8" stroke-dashoffset="0"/><circle class="simulation-point" cx="100" cy="139.981" r="2.5" fill="#315cff" clip-path="url(#simulation-graph-simulation_experiment_ac_sweep)"/><circle class="simulation-point" cx="300" cy="143.320508" r="2.5" fill="#315cff" clip-path="url(#simulation-graph-simulation_experiment_ac_sweep)"/><circle class="simulation-point" cx="500" cy="169.657311" r="2.5" fill="#315cff" clip-path="url(#simulation-graph-simulation_experiment_ac_sweep)"/><circle class="simulation-point" cx="700" cy="251.299423" r="2.5" fill="#315cff" clip-path="url(#simulation-graph-simulation_experiment_ac_sweep)"/><circle class="simulation-point" cx="900" cy="420.254524" r="2.5" fill="#315cff" clip-path="url(#simulation-graph-simulation_experiment_ac_sweep)"/><circle class="simulation-point" cx="1100" cy="500.905236" r="2.5" fill="#315cff" clip-path="url(#simulation-graph-simulation_experiment_ac_sweep)"/><circle class="simulation-point" cx="100" cy="291.968336" r="2.5" fill="#dc2626" clip-path="url(#simulation-graph-simulation_experiment_ac_sweep)"/><circle class="simulation-point" cx="300" cy="295.285336" r="2.5" fill="#dc2626" clip-path="url(#simulation-graph-simulation_experiment_ac_sweep)"/><circle class="simulation-point" cx="500" cy="317.206706" r="2.5" fill="#dc2626" clip-path="url(#simulation-graph-simulation_experiment_ac_sweep)"/><circle class="simulation-point" cx="700" cy="358.779654" r="2.5" fill="#dc2626" clip-path="url(#simulation-graph-simulation_experiment_ac_sweep)"/><circle class="simulation-point" cx="900" cy="459.916724" r="2.5" fill="#dc2626" clip-path="url(#simulation-graph-simulation_experiment_ac_sweep)"/><circle class="simulation-point" cx="1100" cy="508.543142" r="2.5" fill="#dc2626" clip-path="url(#simulation-graph-simulation_experiment_ac_sweep)"/></g><g class="axes"><line class="axis axis-x" x1="100" y1="520" x2="1100" y2="520"/><line class="axis axis-y" x1="100" y1="64" x2="100" y2="520"/><line class="axis-tick axis-tick-x" x1="100" y1="520" x2="100" y2="526"/><text class="axis-label axis-label-x" x="100" y="542" text-anchor="middle">10</text><line class="axis-tick axis-tick-x" x1="300" y1="520" x2="300" y2="526"/><text class="axis-label axis-label-x" x="300" y="542" text-anchor="middle">100</text><line class="axis-tick axis-tick-x" x1="500" y1="520" x2="500" y2="526"/><text class="axis-label axis-label-x" x="500" y="542" text-anchor="middle">1000</text><line class="axis-tick axis-tick-x" x1="700" y1="520" x2="700" y2="526"/><text class="axis-label axis-label-x" x="700" y="542" text-anchor="middle">10000</text><line class="axis-tick axis-tick-x" x1="900" y1="520" x2="900" y2="526"/><text class="axis-label axis-label-x" x="900" y="542" text-anchor="middle">100000</text><line class="axis-tick axis-tick-x" x1="1100" y1="520" x2="1100" y2="526"/><text class="axis-label axis-label-x" x="1100" y="542" text-anchor="middle">1000000</text><line class="axis-tick axis-tick-y" x1="94" y1="520" x2="100" y2="520"/><text class="axis-label axis-label-y" x="90" y="520" text-anchor="end" dominant-baseline="middle">0</text><line class="axis-tick axis-tick-y" x1="94" y1="444" x2="100" y2="444"/><text class="axis-label axis-label-y" x="90" y="444" text-anchor="end" dominant-baseline="middle">0.2</text><line class="axis-tick axis-tick-y" x1="94" y1="368" x2="100" y2="368"/><text class="axis-label axis-label-y" x="90" y="368" text-anchor="end" dominant-baseline="middle">0.4</text><line class="axis-tick axis-tick-y" x1="94" y1="292" x2="100" y2="292"/><text class="axis-label axis-label-y" x="90" y="292" text-anchor="end" dominant-baseline="middle">0.6</text><line class="axis-tick axis-tick-y" x1="94" y1="216" x2="100" y2="216"/><text class="axis-label axis-label-y" x="90" y="216" text-anchor="end" dominant-baseline="middle">0.8</text><line class="axis-tick axis-tick-y" x1="94" y1="140" x2="100" y2="140"/><text class="axis-label axis-label-y" x="90" y="140" text-anchor="end" dominant-baseline="middle">1</text><line class="axis-tick axis-tick-y" x1="94" y1="64" x2="100" y2="64"/><text class="axis-label axis-label-y" x="90" y="64" text-anchor="end" dominant-baseline="middle">1.2</text><text class="axis-title axis-title-y" x="36" y="292" transform="rotate(-90 36 292)" text-anchor="middle">Value</text><text class="axis-title axis-title-x" x="600" y="568" text-anchor="middle">Frequency (Hz)</text></g><g class="legend"><g class="legend-item" transform="translate(1110 64)"><line class="legend-line" x1="0" y1="0" x2="16" y2="0" stroke="#315cff"/><text class="legend-label" x="20" y="0" dominant-baseline="middle"><tspan x="20" dy="0">VOUT</tspan></text></g><g class="legend-item" transform="translate(1110 88)"><line class="legend-line" x1="0" y1="0" x2="16" y2="0" stroke="#dc2626"/><text class="legend-label" x="20" y="0" dominant-baseline="middle"><tspan x="20" dy="0">I(VIN)</tspan></text></g></g><text class="chart-title" x="600" y="24" text-anchor="middle">Frequency Response</text></svg>